<?xml version="1.0" encoding="UTF-8" ?>
<!DOCTYPE svg PUBLIC "-//W3C//DTD SVG 1.1//EN" "http://www.w3.org/Graphics/SVG/1.1/DTD/svg11.dtd">
<svg width="1402pt" height="390pt" viewBox="0 0 1402 390" version="1.1" xmlns="http://www.w3.org/2000/svg">
<path fill="#fefefe" d=" M 0.00 0.00 L 7.00 0.00 C 7.00 57.00 7.01 114.00 7.00 171.00 C 18.67 171.00 30.33 171.00 42.00 171.00 C 41.90 162.33 42.28 153.64 41.66 144.97 C 41.56 133.65 41.66 122.33 41.62 111.01 C 55.74 111.03 69.87 110.92 83.99 111.06 C 92.70 111.90 102.00 113.32 109.03 118.99 C 115.79 124.49 118.52 133.53 118.39 142.00 C 118.56 151.97 118.48 163.30 111.13 171.00 C 124.36 171.01 137.60 171.00 150.84 171.00 C 153.57 160.54 153.08 149.72 152.97 139.02 C 151.74 127.30 149.26 114.92 141.27 105.78 C 138.09 101.86 133.55 99.51 129.24 97.08 C 132.08 94.30 135.15 91.73 137.66 88.63 C 144.24 79.83 147.15 68.84 148.01 58.03 C 148.41 45.17 146.94 31.44 139.42 20.58 C 132.61 10.75 120.98 5.74 109.62 3.33 C 101.28 1.74 92.88 0.34 84.38 0.00 L 1402.00 0.00 L 1402.00 119.82 C 1386.00 119.84 1369.99 119.80 1354.00 119.85 C 1354.00 129.62 1353.99 139.39 1353.99 149.17 C 1369.99 149.19 1386.00 149.18 1402.00 149.18 L 1402.00 390.00 L 1275.61 390.00 C 1279.55 388.99 1283.58 387.44 1286.38 384.36 C 1289.66 380.80 1291.19 375.83 1291.09 371.04 C 1291.27 358.03 1291.14 345.01 1291.16 332.00 C 1289.51 332.00 1287.88 331.99 1286.26 331.96 C 1286.06 332.81 1285.67 334.50 1285.47 335.35 C 1278.71 328.97 1266.59 329.46 1260.74 336.78 C 1257.04 341.71 1256.59 348.10 1256.86 354.04 C 1256.79 360.90 1260.18 368.39 1266.66 371.35 C 1270.02 372.60 1273.77 373.71 1277.30 372.39 C 1280.74 371.75 1283.24 369.11 1286.06 367.25 C 1285.48 372.59 1285.27 379.12 1280.66 382.71 C 1274.28 386.86 1266.44 384.57 1259.99 381.88 C 1259.98 383.82 1259.98 385.76 1259.98 387.71 C 1263.12 388.50 1266.21 389.58 1269.45 390.00 L 1113.63 390.00 C 1118.99 388.97 1124.63 386.26 1127.08 381.09 C 1130.53 374.28 1130.04 366.41 1130.00 359.00 C 1129.99 350.00 1130.01 340.99 1129.99 331.99 C 1128.07 332.00 1126.17 332.00 1124.28 331.97 C 1124.11 332.65 1123.77 334.02 1123.60 334.70 C 1118.89 331.60 1113.09 329.82 1107.52 331.49 C 1103.19 332.52 1099.31 335.41 1097.51 339.54 C 1093.79 347.69 1093.94 357.72 1098.42 365.56 C 1101.27 370.30 1106.75 372.55 1112.07 373.01 C 1116.63 372.90 1120.51 370.28 1124.00 367.59 C 1124.23 372.96 1123.57 379.41 1118.80 382.79 C 1112.73 386.69 1105.13 384.79 1098.99 382.09 C 1098.59 383.87 1098.18 385.66 1097.81 387.46 C 1101.03 388.32 1104.19 389.42 1107.49 390.00 L 0.00 390.00 L 0.00 0.00 Z" />
<path fill="#050505" d=" M 7.00 0.00 L 84.38 0.00 C 92.88 0.34 101.28 1.74 109.62 3.33 C 120.98 5.74 132.61 10.75 139.42 20.58 C 146.94 31.44 148.41 45.17 148.01 58.03 C 147.15 68.84 144.24 79.83 137.66 88.63 C 135.15 91.73 132.08 94.30 129.24 97.08 C 133.55 99.51 138.09 101.86 141.27 105.78 C 149.26 114.92 151.74 127.30 152.97 139.02 C 153.08 149.72 153.57 160.54 150.84 171.00 C 137.60 171.00 124.36 171.01 111.13 171.00 C 118.48 163.30 118.56 151.97 118.39 142.00 C 118.52 133.53 115.79 124.49 109.03 118.99 C 102.00 113.32 92.70 111.90 83.99 111.06 C 69.87 110.92 55.74 111.03 41.62 111.01 C 41.66 122.33 41.56 133.65 41.66 144.97 C 42.28 153.64 41.90 162.33 42.00 171.00 C 30.33 171.00 18.67 171.00 7.00 171.00 C 7.01 114.00 7.00 57.00 7.00 0.00 Z" />
<path fill="#fefefe" d=" M 41.73 27.02 C 55.81 27.10 69.88 26.78 83.95 27.20 C 92.15 28.10 101.47 28.07 107.81 34.18 C 113.30 40.06 113.10 48.48 113.83 55.95 C 113.29 62.85 112.69 70.40 107.89 75.84 C 101.80 82.90 91.88 84.85 82.98 85.20 C 69.23 85.37 55.47 85.17 41.72 85.29 C 41.77 65.87 41.73 46.44 41.73 27.02 Z" />
<path fill="#050505" d=" M 208.95 58.92 C 216.94 54.52 226.06 53.09 234.98 52.00 C 241.03 52.19 247.19 51.39 253.15 52.79 C 265.03 54.07 276.71 59.27 284.79 68.23 C 294.14 78.45 298.53 92.20 300.36 105.69 C 301.48 110.12 300.64 114.76 301.84 119.18 C 302.24 125.19 302.25 131.28 300.89 137.18 C 271.34 137.28 241.78 136.97 212.23 137.33 C 213.01 140.84 213.03 144.43 213.06 148.00 C 214.12 156.11 216.45 164.21 221.15 171.00 C 209.53 171.01 197.90 171.01 186.27 171.00 C 182.79 161.35 180.89 151.22 179.98 141.05 C 180.01 133.03 179.97 125.00 180.00 116.98 C 181.21 108.17 181.85 99.19 184.64 90.65 C 188.35 77.54 196.50 65.12 208.95 58.92 Z" />
<path fill="#050505" d=" M 541.41 63.40 C 553.94 53.55 570.62 51.52 586.06 51.98 C 598.10 52.82 610.57 56.06 619.90 64.14 C 630.93 73.28 636.54 87.26 639.03 101.03 C 640.10 105.31 639.97 109.75 640.95 114.05 C 641.10 121.76 640.95 129.47 641.00 137.18 C 611.34 137.20 581.69 137.12 552.04 137.22 C 551.72 148.95 553.89 161.46 561.17 171.00 C 549.45 171.04 537.73 170.96 526.01 171.03 C 522.72 163.74 521.34 155.78 520.08 147.93 C 520.06 144.25 519.71 140.59 519.04 136.97 C 519.04 130.64 518.53 124.24 519.83 118.01 C 519.86 109.68 521.28 101.41 523.31 93.35 C 526.30 81.95 531.89 70.71 541.41 63.40 Z" />
<path fill="#050505" d=" M 312.26 58.00 C 323.09 58.00 333.93 58.00 344.76 58.00 C 352.11 85.96 360.80 113.56 367.27 141.75 C 368.58 146.46 369.12 151.37 371.03 155.90 C 372.97 150.93 373.98 145.67 375.48 140.55 C 382.67 112.93 390.78 85.55 398.22 58.00 C 407.74 58.00 417.26 58.00 426.78 58.00 C 434.80 87.44 443.53 116.70 450.65 146.39 C 451.56 149.79 451.84 153.38 453.32 156.62 C 453.94 155.11 454.58 153.59 454.93 151.99 C 462.52 120.44 472.03 89.38 480.24 58.00 C 490.94 58.03 501.64 57.95 512.34 58.03 C 508.79 72.27 504.37 86.30 500.46 100.45 C 493.90 123.94 487.01 147.34 480.54 170.86 C 462.78 171.20 445.01 170.90 427.24 171.01 C 423.53 157.71 419.42 144.54 415.79 131.22 C 414.69 127.38 413.99 123.42 412.42 119.74 C 410.74 122.10 410.54 125.07 409.76 127.78 C 406.05 142.25 402.39 156.74 398.00 171.02 C 380.08 170.98 362.16 171.01 344.24 171.00 C 333.75 133.29 322.87 95.68 312.26 58.00 Z" />
<path fill="#050505" d=" M 672.26 77.94 C 704.76 77.71 737.27 77.83 769.78 77.88 C 775.15 88.08 776.26 99.68 777.03 110.95 C 776.96 140.30 777.02 169.65 777.00 199.00 C 777.01 212.42 778.11 226.85 770.87 238.83 C 762.02 254.09 743.87 260.89 727.06 262.02 C 718.10 261.87 709.12 262.23 700.18 261.84 C 695.86 260.53 691.17 261.76 686.99 259.95 C 687.02 252.22 686.98 244.49 687.01 236.77 C 691.03 236.84 694.90 238.26 698.95 238.01 C 708.35 237.70 718.01 239.05 727.11 236.06 C 734.28 233.82 741.21 228.51 742.92 220.88 C 743.11 212.53 742.94 204.16 742.99 195.81 C 732.20 207.54 715.84 213.83 700.00 213.02 C 688.97 213.53 677.37 209.48 670.16 200.87 C 662.48 192.06 659.73 180.20 658.08 168.93 C 658.05 165.24 657.72 161.59 657.04 157.97 C 656.98 149.33 656.93 140.69 657.07 132.06 C 658.73 125.43 657.14 118.49 658.80 111.87 C 659.34 99.44 664.38 87.50 672.26 77.94 Z" />
<path fill="#050505" d=" M 801.99 77.83 C 812.66 77.82 823.33 77.83 834.00 77.82 C 834.03 104.23 833.98 130.64 834.03 157.05 C 834.93 165.94 837.04 176.99 846.33 180.80 C 857.79 182.72 868.56 176.92 877.72 170.68 C 880.52 168.52 883.72 166.64 885.94 163.87 C 886.08 135.19 885.96 106.50 886.00 77.82 C 897.00 77.83 908.00 77.81 919.00 77.83 C 919.00 120.89 919.00 163.94 919.00 207.00 C 913.05 207.00 907.10 207.00 901.16 207.00 C 896.91 202.25 893.08 197.14 888.91 192.33 C 875.46 202.47 859.05 209.66 841.95 209.02 C 830.97 208.25 819.29 204.76 811.97 196.04 C 805.43 188.62 802.91 178.65 802.00 169.03 C 802.00 138.63 802.01 108.23 801.99 77.83 Z" />
<path fill="#050505" d=" M 954.00 77.83 C 991.29 77.82 1028.59 77.82 1065.89 77.82 C 1068.19 83.95 1069.34 90.48 1069.13 97.03 C 1069.23 133.35 1069.17 169.68 1069.16 206.00 C 1058.77 205.99 1048.38 206.00 1038.00 206.00 C 1037.99 171.98 1037.98 137.97 1038.00 103.95 C 1037.97 97.83 1036.36 91.43 1032.19 86.78 C 1028.78 83.35 1023.89 81.26 1019.01 82.04 C 1006.75 83.88 996.12 91.16 987.00 99.19 C 987.00 134.79 987.00 170.40 987.00 206.00 C 976.00 206.00 965.00 206.00 954.00 206.00 C 954.00 163.27 954.01 120.55 954.00 77.83 Z" />
<path fill="#050505" d=" M 1110.34 77.94 C 1138.89 77.67 1167.45 77.90 1196.00 77.82 C 1199.94 77.90 1203.90 77.61 1207.84 78.02 C 1212.24 84.62 1213.39 92.84 1214.51 100.55 C 1215.30 103.64 1214.94 106.85 1215.01 110.00 C 1214.99 142.34 1215.00 174.67 1215.00 207.00 C 1214.83 213.62 1215.65 220.35 1213.88 226.82 C 1211.46 239.25 1202.52 249.71 1191.37 255.35 C 1183.81 259.18 1175.40 261.08 1167.04 262.00 C 1153.01 261.65 1138.72 263.16 1124.98 260.02 C 1125.02 252.27 1124.98 244.51 1125.01 236.76 C 1133.91 238.50 1142.97 237.93 1152.00 238.00 C 1160.35 238.27 1169.14 236.07 1175.56 230.49 C 1180.13 226.39 1182.24 220.10 1182.01 214.05 C 1181.92 208.11 1182.12 202.16 1181.86 196.23 C 1172.24 205.11 1160.10 211.39 1147.02 212.98 C 1137.31 213.45 1127.02 213.65 1118.27 208.74 C 1106.05 202.65 1100.00 189.11 1097.68 176.30 C 1095.26 165.36 1095.92 154.13 1095.82 143.00 C 1095.76 135.65 1096.09 128.32 1096.00 120.97 C 1097.28 112.19 1097.31 103.07 1100.72 94.71 C 1102.93 88.59 1106.62 83.21 1110.34 77.94 Z" />
<path fill="#050505" d=" M 1238.34 77.93 C 1267.79 77.75 1297.25 77.75 1326.71 77.93 C 1328.49 80.35 1330.29 82.76 1332.30 85.00 C 1324.94 91.24 1318.51 98.50 1311.05 104.62 C 1304.39 96.60 1296.91 87.67 1285.93 86.10 C 1281.06 86.03 1275.94 85.32 1271.37 87.38 C 1266.61 89.11 1262.54 93.75 1262.96 99.02 C 1262.30 103.81 1265.76 108.02 1269.75 110.22 C 1277.51 114.69 1286.19 117.17 1294.44 120.56 C 1304.89 124.73 1315.21 129.74 1323.71 137.25 C 1331.12 144.38 1335.73 154.63 1335.10 165.00 C 1335.64 173.64 1333.21 182.33 1328.57 189.60 C 1324.25 196.88 1317.14 202.05 1309.62 205.67 C 1293.54 212.68 1274.71 212.93 1258.35 206.73 C 1244.49 201.52 1233.71 190.18 1226.93 177.26 C 1235.13 171.43 1242.71 164.78 1250.82 158.81 C 1255.65 167.33 1261.30 176.08 1270.19 180.81 C 1277.49 184.58 1286.54 185.33 1294.17 182.12 C 1297.90 180.47 1301.18 177.59 1302.74 173.74 C 1306.03 167.28 1302.92 158.82 1296.84 155.20 C 1291.00 151.48 1284.24 149.69 1277.88 147.11 C 1266.72 142.84 1255.09 138.91 1245.65 131.33 C 1238.29 125.78 1232.84 117.39 1231.74 108.14 C 1229.28 97.67 1232.98 86.89 1238.34 77.93 Z" />
<path fill="#fefefe" d=" M 218.83 87.84 C 223.82 80.91 232.91 78.81 241.00 78.98 C 249.57 78.59 258.96 81.91 263.44 89.64 C 267.60 95.98 267.86 103.71 269.08 110.94 C 250.34 111.07 231.59 110.97 212.85 111.00 C 212.90 103.00 214.26 94.58 218.83 87.84 Z" />
<path fill="#fefefe" d=" M 559.82 85.79 C 566.11 79.56 575.61 78.57 584.03 79.04 C 589.83 79.74 595.94 81.48 600.01 85.93 C 606.12 92.65 607.99 102.17 608.02 110.99 C 589.31 111.00 570.61 111.03 551.91 110.97 C 552.70 102.22 553.88 92.73 559.82 85.79 Z" />
<path fill="#fefefe" d=" M 722.44 84.35 C 728.79 84.13 736.33 85.10 740.31 90.71 C 743.21 95.20 743.50 100.77 743.86 105.95 C 743.76 126.55 744.00 147.15 743.74 167.73 C 736.95 173.90 729.16 179.24 720.65 182.77 C 714.66 185.30 707.81 186.15 701.49 184.56 C 694.19 181.63 691.86 173.07 691.06 165.98 C 690.45 149.98 690.72 133.96 691.00 117.96 C 691.06 109.38 692.38 100.06 698.59 93.62 C 704.69 87.09 713.81 84.83 722.44 84.35 Z" />
<path fill="#fefefe" d=" M 1148.62 86.66 C 1154.18 84.52 1160.19 84.79 1166.05 84.88 C 1171.66 84.76 1177.56 87.93 1179.78 93.24 C 1181.32 96.93 1182.11 100.95 1182.00 104.95 C 1182.00 125.93 1181.99 146.90 1182.01 167.88 C 1172.00 176.52 1160.31 184.49 1146.78 185.73 C 1142.00 185.79 1136.91 183.96 1134.11 179.90 C 1130.33 174.78 1129.61 168.22 1129.03 162.07 C 1128.98 148.70 1129.01 135.33 1129.01 121.96 C 1128.92 118.27 1129.80 114.66 1129.96 110.99 C 1130.16 100.02 1138.09 89.72 1148.62 86.66 Z" />
<path fill="#050505" d=" M 1354.00 119.85 C 1369.99 119.80 1386.00 119.84 1402.00 119.82 L 1402.00 149.18 C 1386.00 149.18 1369.99 149.19 1353.99 149.17 C 1353.99 139.39 1354.00 129.62 1354.00 119.85 Z" />
<path fill="#fc181a" d=" M 424.78 194.81 C 429.23 191.56 435.03 191.60 440.12 193.15 C 440.14 195.43 440.16 197.71 440.19 200.00 C 437.49 199.99 434.80 200.03 432.12 200.05 C 429.22 203.31 430.08 207.75 430.04 211.74 C 432.07 211.79 434.10 211.83 436.13 211.89 C 436.04 214.92 436.00 217.95 436.00 220.99 C 434.00 221.01 432.00 221.02 430.01 221.05 C 429.99 234.43 430.01 247.80 430.00 261.18 C 426.33 261.19 422.66 261.19 418.99 261.21 C 419.00 243.79 419.00 226.38 418.99 208.97 C 419.36 203.86 420.52 198.15 424.78 194.81 Z" />
<path fill="#fc181a" d=" M 392.83 193.99 C 396.55 193.98 400.28 193.98 404.01 193.99 C 404.01 197.66 404.01 201.34 404.01 205.01 C 400.27 205.02 396.54 205.03 392.81 205.01 C 392.82 201.33 392.82 197.66 392.83 193.99 Z" />
<path fill="#fc181a" d=" M 356.99 197.99 C 360.66 197.98 364.33 197.99 368.00 197.99 C 367.99 202.99 368.01 207.99 368.01 212.99 C 371.40 213.00 374.78 212.99 378.17 213.00 C 378.17 216.05 378.17 219.11 378.16 222.17 C 374.79 222.19 371.41 222.18 368.05 222.20 C 367.97 231.49 367.98 240.78 368.03 250.07 C 367.91 252.38 369.29 254.68 371.42 255.62 C 373.94 256.13 376.53 255.72 379.03 255.26 C 379.02 257.84 379.01 260.41 379.01 262.98 C 373.72 262.61 367.54 264.63 363.08 260.88 C 358.73 257.68 357.58 252.06 357.02 247.02 C 356.93 239.03 357.04 231.03 357.00 223.05 C 354.94 223.02 352.88 223.01 350.83 222.99 C 350.80 219.66 350.79 216.34 350.81 213.01 C 352.87 212.99 354.93 212.98 357.00 212.95 C 356.97 207.96 357.01 202.98 356.99 197.99 Z" />
<path fill="#fc181a" d=" M 456.00 197.99 C 459.66 197.99 463.33 197.98 467.01 197.99 C 466.99 202.99 467.01 207.98 467.01 212.98 C 470.34 212.99 473.68 212.97 477.01 213.00 C 477.02 216.05 477.02 219.11 477.01 222.16 C 473.68 222.19 470.36 222.18 467.04 222.18 C 467.08 232.37 466.78 242.58 467.18 252.76 C 468.84 256.76 473.76 255.75 477.20 255.75 C 477.18 258.15 477.18 260.56 477.18 262.97 C 472.34 262.71 466.87 264.36 462.58 261.43 C 458.48 259.17 456.82 254.30 456.07 249.95 C 455.87 240.98 456.07 232.00 455.99 223.03 C 453.65 223.01 451.32 223.01 448.99 223.00 C 448.98 219.67 448.98 216.33 448.99 213.00 C 451.32 212.98 453.65 212.98 455.99 212.96 C 455.99 207.97 456.01 202.98 456.00 197.99 Z" />
<path fill="#fc181a" d=" M 393.00 211.99 C 396.39 211.98 399.78 211.98 403.18 211.99 C 403.19 228.39 403.23 244.78 403.16 261.17 C 399.77 261.20 396.38 261.20 393.00 261.17 C 393.00 244.78 393.00 228.39 393.00 211.99 Z" />
<path fill="#fc181a" d=" M 490.99 211.99 C 494.33 211.97 497.67 211.97 501.01 211.99 C 501.04 222.68 500.96 233.38 501.03 244.07 C 501.21 247.93 502.37 253.17 506.99 253.74 C 511.54 253.13 515.39 250.49 518.97 247.80 C 519.02 235.86 518.96 223.93 518.99 211.99 C 522.39 211.98 525.78 211.98 529.18 211.99 C 529.20 228.68 529.22 245.37 529.17 262.06 C 527.47 262.04 525.78 262.09 524.10 261.94 C 522.28 260.65 521.12 258.65 519.66 257.00 C 515.51 259.53 511.11 262.40 506.04 262.17 C 502.09 262.46 497.85 261.96 494.88 259.09 C 492.41 256.39 490.71 252.77 490.96 249.05 C 491.02 236.70 490.97 224.34 490.99 211.99 Z" />
<path fill="#fc181a" d=" M 548.00 211.98 C 549.89 211.98 551.79 211.99 553.69 212.01 C 555.00 213.63 556.33 215.24 557.67 216.85 C 563.41 212.75 570.63 210.52 577.61 212.38 C 582.87 214.04 586.02 219.59 586.02 224.92 C 585.99 237.01 586.00 249.10 586.01 261.19 C 582.67 261.18 579.33 261.18 576.00 261.15 C 575.94 250.08 576.09 239.01 575.93 227.95 C 575.86 224.50 573.74 220.62 570.01 220.25 C 565.50 220.87 561.74 223.58 558.25 226.29 C 558.10 237.92 558.23 249.55 558.18 261.18 C 554.78 261.20 551.38 261.20 547.99 261.19 C 548.00 244.79 548.00 228.38 548.00 211.98 Z" />
<path fill="#fc181a" d=" M 604.58 222.60 C 609.87 212.44 623.86 209.08 633.74 214.25 C 638.18 216.34 640.46 221.36 640.99 226.01 C 641.07 239.36 640.96 252.71 641.04 266.06 C 641.34 270.93 638.06 275.65 633.72 277.70 C 627.08 281.33 619.28 279.69 612.06 279.93 C 611.98 277.29 611.98 274.64 611.98 272.00 C 616.51 271.74 621.20 272.57 625.63 271.49 C 630.98 269.78 631.19 263.30 630.75 258.66 C 625.20 262.18 618.43 265.71 611.73 263.29 C 605.02 261.65 602.52 254.15 602.01 248.02 C 602.19 239.54 600.86 230.55 604.58 222.60 Z" />
<path fill="#fc181a" d=" M 305.91 222.93 C 307.74 215.56 315.95 211.91 323.01 212.80 C 329.42 212.10 334.77 216.37 338.40 221.18 C 336.28 223.55 333.95 225.71 331.63 227.89 C 329.08 224.55 325.61 221.05 321.00 221.97 C 318.00 221.24 316.30 223.79 315.11 226.08 C 315.93 227.46 316.36 229.33 318.02 229.97 C 324.08 233.27 331.55 234.31 336.34 239.68 C 340.11 242.97 339.27 248.40 338.95 252.84 C 335.61 262.89 322.40 265.34 313.59 261.47 C 309.27 259.82 306.31 256.04 303.88 252.29 C 306.40 250.16 309.09 248.25 311.51 246.01 C 313.25 248.68 315.08 251.43 317.78 253.23 C 321.34 255.02 326.10 254.78 328.99 251.79 C 328.98 249.91 328.97 248.03 328.96 246.16 C 323.22 241.59 315.15 241.32 309.62 236.39 C 305.92 233.18 303.78 227.59 305.91 222.93 Z" />
<path fill="#fefefe" d=" M 613.77 228.65 C 614.92 222.70 622.40 220.33 627.55 222.42 C 630.00 223.59 630.04 226.61 630.20 228.95 C 630.28 235.58 630.22 242.23 630.18 248.87 C 626.57 251.47 622.72 254.60 618.02 254.49 C 614.42 254.22 613.38 250.02 613.29 247.04 C 613.33 240.92 612.83 234.73 613.77 228.65 Z" />
<path fill="#050505" d=" M 256.72 317.78 C 262.58 310.25 275.45 310.12 281.38 317.63 C 284.70 321.49 284.47 326.96 283.80 331.70 C 283.06 335.72 279.54 338.12 276.71 340.69 C 281.41 342.46 285.90 345.93 286.94 351.11 C 287.39 356.25 287.51 361.92 284.29 366.29 C 281.09 370.80 275.58 373.60 270.02 373.04 C 267.74 372.63 264.57 374.05 263.06 371.76 C 262.93 370.19 262.97 368.61 262.97 367.05 C 268.19 368.51 275.72 369.47 279.01 364.03 C 281.73 360.29 281.09 355.50 280.84 351.17 C 278.84 344.96 271.55 343.46 265.82 343.97 C 265.82 342.35 265.82 340.74 265.81 339.13 C 271.15 339.63 276.75 336.23 277.93 330.86 C 278.00 327.22 278.77 322.95 275.93 320.08 C 273.34 316.86 268.49 316.02 264.89 317.97 C 261.12 319.21 259.54 323.43 259.04 327.02 C 258.94 342.35 259.04 357.67 259.00 373.00 C 257.00 373.01 255.00 373.01 253.00 373.00 C 253.01 358.33 252.98 343.65 253.01 328.98 C 253.50 325.08 254.27 320.97 256.72 317.78 Z" />
<path fill="#050505" d=" M 393.55 317.61 C 395.78 312.13 403.17 310.57 408.09 313.20 C 408.00 314.65 407.92 316.10 407.83 317.54 C 405.22 317.31 402.24 316.16 399.97 318.04 C 397.95 319.15 398.12 321.77 397.77 323.74 C 397.16 326.42 397.10 329.17 397.17 331.91 C 400.44 332.03 403.72 331.99 407.00 332.00 C 406.99 333.66 406.99 335.33 407.00 337.00 C 403.74 337.00 400.48 336.98 397.22 337.07 C 397.13 349.05 397.22 361.03 397.17 373.01 C 395.44 373.00 393.72 373.00 392.00 373.00 C 392.00 361.00 392.00 349.00 392.00 337.00 C 389.33 337.01 386.66 336.99 384.00 337.00 C 384.00 335.33 384.00 333.66 383.99 332.00 C 386.66 332.01 389.33 331.99 392.01 332.00 C 392.04 327.17 391.44 322.13 393.55 317.61 Z" />
<path fill="#050505" d=" M 764.00 313.00 C 765.99 312.99 767.99 313.00 770.00 313.00 C 770.00 333.00 770.00 353.00 770.00 373.00 C 767.99 373.00 765.99 373.00 764.00 373.00 C 764.00 353.00 764.00 333.00 764.00 313.00 Z" />
<path fill="#050505" d=" M 687.00 314.99 C 688.71 314.99 690.43 315.00 692.15 315.00 C 692.17 317.33 692.17 319.66 692.16 322.00 C 690.43 321.99 688.71 322.00 687.00 322.01 C 686.98 319.67 686.98 317.33 687.00 314.99 Z" />
<path fill="#050505" d=" M 23.26 317.00 C 25.40 316.98 27.55 316.98 29.70 317.00 C 36.90 335.73 44.41 354.35 51.82 373.00 C 49.65 373.01 47.48 373.01 45.32 373.00 C 43.70 367.90 41.18 363.13 39.58 358.02 C 30.49 357.98 21.40 358.01 12.31 357.99 C 10.29 363.03 8.30 368.08 6.11 373.05 C 4.26 373.01 2.42 372.99 0.57 372.94 C 7.72 354.14 15.70 335.65 23.26 317.00 Z" />
<path fill="#050505" d=" M 873.00 317.00 C 881.42 317.27 890.43 315.77 898.23 319.79 C 902.74 321.96 904.72 327.27 904.05 332.04 C 904.60 337.11 901.06 341.46 896.72 343.58 C 899.93 345.44 903.37 347.61 904.81 351.23 C 907.94 357.87 905.03 367.19 898.06 370.08 C 890.22 373.65 881.39 372.99 873.00 373.00 C 873.00 354.33 873.00 335.67 873.00 317.00 Z" />
<path fill="#050505" d=" M 205.00 319.00 C 207.33 318.99 209.66 318.99 212.00 319.00 C 212.00 321.33 212.00 323.66 212.00 326.00 C 209.66 326.00 207.33 326.00 205.00 326.00 C 204.99 323.66 204.99 321.33 205.00 319.00 Z" />
<path fill="#050505" d=" M 219.00 319.00 C 220.99 318.98 222.99 318.98 225.00 319.00 C 225.01 321.33 225.01 323.66 225.01 326.00 C 223.00 326.00 221.00 326.00 218.99 326.00 C 218.98 323.66 218.98 321.33 219.00 319.00 Z" />
<path fill="#050505" d=" M 431.00 319.00 C 433.05 318.98 435.11 318.98 437.17 319.00 C 437.17 321.33 437.17 323.66 437.17 326.00 C 435.10 326.00 433.04 326.00 430.99 326.00 C 430.98 323.66 430.99 321.33 431.00 319.00 Z" />
<path fill="#050505" d=" M 444.00 319.00 C 446.33 318.99 448.66 318.99 451.00 319.00 C 451.00 321.33 451.00 323.66 451.00 326.00 C 448.66 326.00 446.33 326.00 444.00 326.00 C 443.99 323.66 443.99 321.33 444.00 319.00 Z" />
<path fill="#050505" d=" M 166.00 322.27 C 168.02 321.78 169.99 321.12 171.98 320.55 C 172.02 324.36 171.99 328.18 172.00 332.00 C 175.00 331.99 178.00 332.00 181.00 332.00 C 180.99 333.66 181.00 335.33 181.01 337.00 C 178.00 336.99 175.00 337.00 172.00 337.00 C 172.01 346.01 171.98 355.01 172.01 364.02 C 171.71 367.02 174.95 369.67 177.85 368.91 C 179.25 368.63 180.61 368.18 182.00 367.83 C 182.00 369.48 182.00 371.13 182.01 372.79 C 178.64 373.13 175.23 374.87 171.96 373.11 C 167.36 372.21 166.42 366.93 166.01 363.04 C 165.97 354.36 166.02 345.68 165.99 337.00 C 163.33 337.01 160.66 336.99 158.00 337.01 C 158.00 335.33 158.00 333.66 158.00 332.00 C 160.66 332.01 163.33 331.98 166.00 332.00 C 166.00 328.75 165.99 325.51 166.00 322.27 Z" />
<path fill="#fefefe" d=" M 879.79 323.01 C 884.43 323.24 889.38 322.23 893.77 324.25 C 899.43 326.87 899.16 335.98 893.97 338.95 C 889.66 341.35 884.53 340.92 879.79 341.01 C 879.75 335.01 879.75 329.01 879.79 323.01 Z" />
<path fill="#fefefe" d=" M 15.04 352.46 C 18.68 343.21 22.24 333.93 26.01 324.74 C 29.74 333.95 33.31 343.22 36.90 352.48 C 29.61 352.48 22.33 352.51 15.04 352.46 Z" />
<path fill="#050505" d=" M 73.38 336.56 C 78.23 332.42 84.85 329.20 91.24 331.75 C 96.67 333.05 99.95 338.64 100.02 343.96 C 100.00 353.64 100.01 363.32 100.00 373.01 C 98.27 372.99 96.55 372.99 94.82 373.00 C 94.79 364.35 94.89 355.71 94.79 347.06 C 94.42 343.98 93.96 340.60 91.77 338.23 C 87.07 333.85 78.34 335.88 75.80 341.72 C 74.79 343.99 73.86 346.41 73.99 348.94 C 74.00 356.96 74.00 364.98 74.00 373.00 C 72.00 373.00 70.00 373.00 68.00 373.00 C 68.00 359.33 68.01 345.66 68.00 331.99 C 69.69 332.00 71.39 332.00 73.08 331.99 C 73.16 333.51 73.26 335.03 73.38 336.56 Z" />
<path fill="#050505" d=" M 127.74 331.72 C 132.84 329.87 138.26 331.54 143.20 333.10 C 142.80 334.64 142.36 336.17 141.97 337.71 C 137.53 336.22 132.42 334.89 127.93 336.87 C 124.41 338.34 123.65 343.92 127.07 345.90 C 132.55 349.71 140.52 350.79 143.60 357.40 C 144.82 361.81 144.69 367.61 140.52 370.47 C 134.23 375.13 125.97 374.18 118.98 371.88 C 118.98 369.91 118.99 367.96 119.00 366.00 C 124.01 368.24 130.30 370.73 135.37 367.30 C 137.58 366.44 137.92 363.85 138.90 361.98 C 137.25 355.42 129.97 354.16 124.96 351.11 C 120.78 348.82 117.49 343.47 119.77 338.79 C 120.63 334.96 124.15 332.65 127.74 331.72 Z" />
<path fill="#050505" d=" M 211.32 331.30 C 217.44 330.06 224.17 331.92 228.69 336.28 C 231.40 339.34 233.02 343.18 233.92 347.13 C 234.32 353.45 234.52 360.22 230.76 365.68 C 224.81 375.18 210.13 376.44 202.21 368.78 C 197.85 364.37 196.54 357.95 195.98 352.01 C 196.58 347.76 197.32 343.39 199.44 339.60 C 202.02 335.30 206.42 332.31 211.32 331.30 Z" />
<path fill="#050505" d=" M 316.74 331.73 C 323.02 329.43 330.60 332.19 334.18 337.80 C 337.47 342.55 337.28 348.49 337.18 354.00 C 328.06 354.08 318.93 353.83 309.81 354.15 C 310.38 359.57 312.48 365.82 318.09 367.85 C 323.36 370.45 329.17 367.95 334.18 365.94 C 334.18 367.89 334.16 369.84 334.11 371.79 C 330.45 372.83 326.66 373.29 322.93 373.99 C 316.95 373.53 310.03 371.65 307.09 365.84 C 303.84 359.52 303.01 351.89 305.01 345.05 C 306.39 339.08 310.61 333.35 316.74 331.73 Z" />
<path fill="#050505" d=" M 491.52 331.45 C 493.49 330.57 495.69 331.12 497.76 331.22 C 497.94 333.13 498.01 335.05 498.07 336.98 C 495.36 337.18 492.36 336.38 489.95 337.99 C 487.48 339.25 486.39 342.01 485.44 344.45 C 483.17 353.80 484.58 363.49 484.15 373.00 C 482.43 372.99 480.71 372.99 479.00 373.00 C 478.88 359.34 479.22 345.66 478.81 332.00 C 480.52 331.99 482.23 331.99 483.94 331.98 C 484.00 333.57 484.08 335.17 484.18 336.77 C 486.66 335.05 488.55 332.40 491.52 331.45 Z" />
<path fill="#050505" d=" M 551.28 332.22 C 556.73 329.72 562.78 331.40 568.18 333.14 C 567.75 334.65 567.30 336.16 566.90 337.69 C 561.46 335.77 554.21 334.23 549.97 339.30 C 550.09 341.03 549.70 342.88 550.39 344.53 C 556.04 349.75 565.88 350.18 568.90 358.17 C 569.26 361.60 569.85 365.65 567.40 368.48 C 564.61 372.47 559.41 373.28 554.96 374.02 C 551.26 373.53 547.51 373.03 543.96 371.86 C 543.97 369.89 543.99 367.94 544.00 365.98 C 548.95 368.33 555.33 370.71 560.36 367.28 C 563.61 365.64 564.53 360.72 561.93 358.12 C 557.31 353.33 549.67 352.84 545.70 347.27 C 541.85 342.04 545.20 333.94 551.28 332.22 Z" />
<path fill="#050505" d=" M 600.31 331.27 C 605.04 330.23 610.00 331.48 614.17 333.80 C 625.94 342.04 625.99 362.07 614.66 370.70 C 610.00 373.36 604.25 374.84 599.02 373.06 C 589.54 371.35 584.34 360.93 584.95 351.98 C 584.52 342.68 590.51 332.58 600.31 331.27 Z" />
<path fill="#050505" d=" M 715.98 334.03 C 722.72 331.03 730.93 329.35 737.69 333.24 C 741.91 336.08 742.17 341.51 742.96 346.05 C 743.09 355.03 742.95 364.02 743.00 373.00 C 741.30 373.00 739.60 373.00 737.91 373.01 C 737.83 371.50 737.73 369.99 737.63 368.48 C 733.59 371.21 729.22 374.03 724.17 373.95 C 720.26 373.14 715.61 372.44 713.43 368.64 C 711.08 365.66 711.86 361.62 712.00 358.12 C 713.06 352.99 718.07 349.86 722.91 348.88 C 727.46 347.41 732.29 348.22 736.98 347.74 C 737.41 343.60 736.81 338.32 732.40 336.54 C 726.84 334.79 720.95 336.72 716.03 339.44 C 715.99 337.63 715.98 335.83 715.98 334.03 Z" />
<path fill="#050505" d=" M 800.11 332.15 C 806.88 329.13 815.92 331.94 819.32 338.65 C 821.92 343.34 822.35 348.75 822.00 354.01 C 812.98 354.02 803.96 353.97 794.94 354.03 C 794.44 359.67 797.34 366.05 802.94 368.00 C 808.25 370.45 813.96 367.72 819.02 365.92 C 819.00 367.83 818.99 369.74 818.94 371.66 C 815.03 372.70 811.05 373.60 807.05 374.01 C 802.92 373.30 798.40 372.83 795.16 369.88 C 789.98 365.57 788.42 358.42 788.90 351.97 C 788.46 344.08 792.27 335.04 800.11 332.15 Z" />
<path fill="#050505" d=" M 936.00 331.98 C 942.20 329.39 949.93 331.73 953.77 337.24 C 957.42 342.03 957.28 348.27 957.19 354.00 C 948.07 354.10 938.94 353.82 929.82 354.16 C 930.41 359.57 932.43 365.87 938.09 367.84 C 943.35 370.47 949.18 367.94 954.18 365.91 C 954.17 367.87 954.15 369.83 954.09 371.79 C 950.43 372.83 946.65 373.33 942.93 374.00 C 937.17 373.50 930.56 371.85 927.45 366.46 C 923.85 360.06 922.96 352.12 925.00 345.06 C 926.38 339.35 930.14 333.75 936.00 331.98 Z" />
<path fill="#050505" d=" M 1056.29 332.21 C 1062.16 329.52 1069.75 331.16 1073.80 336.24 C 1078.03 341.15 1078.37 347.84 1078.19 354.00 C 1069.09 354.03 1059.99 353.95 1050.90 354.04 C 1050.92 359.58 1053.33 366.07 1059.05 367.96 C 1064.35 370.39 1070.15 367.89 1075.16 365.89 C 1075.15 367.84 1075.13 369.81 1075.08 371.77 C 1071.41 372.78 1067.63 373.28 1063.91 374.00 C 1058.81 373.55 1053.12 372.46 1049.70 368.26 C 1044.77 362.55 1044.38 354.45 1045.25 347.32 C 1046.47 341.08 1049.80 334.28 1056.29 332.21 Z" />
<path fill="#050505" d=" M 1107.52 331.49 C 1113.09 329.82 1118.89 331.60 1123.60 334.70 C 1123.77 334.02 1124.11 332.65 1124.28 331.97 C 1126.17 332.00 1128.07 332.00 1129.99 331.99 C 1130.01 340.99 1129.99 350.00 1130.00 359.00 C 1130.04 366.41 1130.53 374.28 1127.08 381.09 C 1124.63 386.26 1118.99 388.97 1113.63 390.00 L 1107.49 390.00 C 1104.19 389.42 1101.03 388.32 1097.81 387.46 C 1098.18 385.66 1098.59 383.87 1098.99 382.09 C 1105.13 384.79 1112.73 386.69 1118.80 382.79 C 1123.57 379.41 1124.23 372.96 1124.00 367.59 C 1120.51 370.28 1116.63 372.90 1112.07 373.01 C 1106.75 372.55 1101.27 370.30 1098.42 365.56 C 1093.94 357.72 1093.79 347.69 1097.51 339.54 C 1099.31 335.41 1103.19 332.52 1107.52 331.49 Z" />
<path fill="#050505" d=" M 1210.20 336.71 C 1215.05 331.93 1222.39 329.09 1228.96 332.05 C 1234.17 333.58 1236.24 339.17 1236.98 344.03 C 1237.04 353.69 1236.97 363.34 1237.00 373.00 C 1234.99 373.01 1232.99 373.01 1231.00 373.00 C 1230.94 363.03 1231.11 353.06 1230.92 343.09 C 1230.10 335.71 1220.25 333.77 1215.25 338.23 C 1212.51 340.62 1210.86 344.31 1210.99 347.94 C 1211.00 356.29 1211.00 364.65 1211.00 373.00 C 1208.99 373.01 1206.99 373.01 1205.00 373.01 C 1204.99 359.34 1205.00 345.67 1205.00 332.00 C 1206.62 332.00 1208.26 331.99 1209.92 331.97 C 1209.97 333.55 1210.07 335.13 1210.20 336.71 Z" />
<path fill="#050505" d=" M 1260.74 336.78 C 1266.59 329.46 1278.71 328.97 1285.47 335.35 C 1285.67 334.50 1286.06 332.81 1286.26 331.96 C 1287.88 331.99 1289.51 332.00 1291.16 332.00 C 1291.14 345.01 1291.27 358.03 1291.09 371.04 C 1291.19 375.83 1289.66 380.80 1286.38 384.36 C 1283.58 387.44 1279.55 388.99 1275.61 390.00 L 1269.45 390.00 C 1266.21 389.58 1263.12 388.50 1259.98 387.71 C 1259.98 385.76 1259.98 383.82 1259.99 381.88 C 1266.44 384.57 1274.28 386.86 1280.66 382.71 C 1285.27 379.12 1285.48 372.59 1286.06 367.25 C 1283.24 369.11 1280.74 371.75 1277.30 372.39 C 1273.77 373.71 1270.02 372.60 1266.66 371.35 C 1260.18 368.39 1256.79 360.90 1256.86 354.04 C 1256.59 348.10 1257.04 341.71 1260.74 336.78 Z" />
<path fill="#050505" d=" M 1321.19 332.17 C 1327.12 329.55 1334.60 331.25 1338.79 336.23 C 1342.92 341.14 1343.41 347.85 1343.00 354.00 C 1333.96 354.05 1324.93 353.92 1315.90 354.08 C 1315.85 359.62 1318.34 366.08 1324.05 367.95 C 1329.35 370.39 1335.17 367.92 1340.18 365.87 C 1340.16 367.83 1340.14 369.80 1340.09 371.77 C 1336.41 372.78 1332.63 373.28 1328.91 373.99 C 1322.80 373.68 1316.17 371.63 1312.92 366.03 C 1309.74 360.29 1309.49 353.58 1310.20 347.20 C 1311.43 340.97 1314.79 334.35 1321.19 332.17 Z" />
<path fill="#050505" d=" M 1376.36 331.39 C 1381.10 330.21 1386.75 331.17 1390.29 334.72 C 1392.71 337.50 1394.28 341.21 1394.03 344.95 C 1393.98 354.30 1394.03 363.65 1394.00 373.00 C 1392.25 373.00 1390.52 373.00 1388.82 373.01 C 1388.78 364.37 1388.91 355.74 1388.78 347.11 C 1388.18 343.66 1387.89 339.46 1384.67 337.36 C 1379.76 334.23 1372.12 336.21 1369.76 341.69 C 1367.29 346.08 1368.11 351.19 1368.00 356.00 C 1368.00 361.67 1367.99 367.33 1368.00 373.00 C 1365.99 373.01 1363.99 373.00 1362.00 373.00 C 1362.00 359.33 1362.00 345.66 1362.00 331.99 C 1363.67 332.00 1365.36 332.00 1367.06 331.99 C 1367.13 333.50 1367.23 335.01 1367.36 336.53 C 1370.28 334.69 1372.86 332.11 1376.36 331.39 Z" />
<path fill="#050505" d=" M 425.00 332.00 C 426.71 332.00 428.43 332.00 430.16 332.00 C 430.25 339.95 430.03 347.92 430.25 355.87 C 430.95 359.53 430.77 363.62 433.38 366.60 C 436.20 368.64 440.02 369.95 443.35 368.31 C 447.83 367.00 450.47 362.37 450.97 357.98 C 451.05 349.32 450.97 340.66 451.00 332.00 C 452.99 331.99 454.99 331.99 457.00 332.00 C 457.00 345.67 457.00 359.33 457.00 373.00 C 455.35 372.99 453.70 373.00 452.06 373.02 C 452.00 371.42 451.92 369.83 451.84 368.24 C 447.92 371.39 443.35 374.09 438.17 373.95 C 434.70 373.21 430.80 372.51 428.44 369.59 C 426.20 366.58 424.81 362.82 424.98 359.05 C 425.02 350.03 424.99 341.01 425.00 332.00 Z" />
<path fill="#050505" d=" M 639.00 332.00 C 649.02 332.00 659.04 332.00 669.06 332.00 C 668.98 333.52 669.13 335.08 668.79 336.58 C 663.65 342.87 659.00 349.54 653.95 355.90 C 651.13 359.89 647.53 363.38 645.50 367.88 C 653.33 368.12 661.17 367.93 669.01 368.00 C 668.99 369.66 668.99 371.33 669.01 373.00 C 658.65 373.00 648.29 373.00 637.94 373.00 C 638.16 371.23 637.55 369.19 638.56 367.63 C 646.00 357.32 654.24 347.60 661.46 337.13 C 653.97 336.86 646.48 337.06 638.99 337.00 C 638.99 335.33 638.99 333.66 639.00 332.00 Z" />
<path fill="#050505" d=" M 687.00 331.99 C 688.71 332.00 690.43 332.00 692.16 332.00 C 692.19 345.67 692.20 359.33 692.15 373.00 C 690.42 372.99 688.71 372.99 687.00 373.00 C 686.99 359.33 686.98 345.66 687.00 331.99 Z" />
<path fill="#050505" d=" M 970.74 332.03 C 972.75 331.99 974.77 331.98 976.80 331.99 C 979.35 340.21 981.87 348.43 984.33 356.67 C 985.16 359.39 985.75 362.26 987.38 364.66 C 991.29 353.88 994.67 342.90 998.24 332.00 C 1000.39 331.99 1002.56 331.99 1004.74 332.00 C 1008.16 342.78 1010.79 353.87 1015.00 364.38 C 1019.78 354.01 1022.01 342.64 1026.14 332.00 C 1027.94 332.00 1029.74 331.99 1031.57 332.00 C 1027.12 345.69 1022.66 359.39 1018.06 373.03 C 1016.04 373.01 1014.02 373.01 1012.02 373.00 C 1008.08 362.11 1005.47 350.76 1001.14 340.01 C 996.72 350.75 994.10 362.16 990.05 373.03 C 988.05 373.01 986.07 373.00 984.10 372.99 C 979.33 359.44 975.32 345.64 970.74 332.03 Z" />
<path fill="#050505" d=" M 1151.00 332.00 C 1152.99 331.99 1154.99 331.99 1157.00 332.00 C 1157.00 341.02 1157.00 350.05 1157.00 359.07 C 1156.83 362.87 1158.91 367.03 1162.67 368.31 C 1165.97 369.94 1169.83 368.61 1172.72 366.73 C 1176.56 363.69 1177.33 358.55 1177.81 353.99 C 1177.88 346.66 1177.79 339.33 1177.83 332.00 C 1179.54 332.00 1181.26 332.00 1183.00 331.99 C 1183.10 345.66 1182.80 359.34 1183.17 373.00 C 1181.44 373.00 1179.73 373.00 1178.04 373.01 C 1177.98 371.33 1177.94 369.66 1177.88 367.99 C 1175.33 370.26 1172.70 372.78 1169.14 373.21 C 1162.59 375.40 1153.85 371.86 1152.20 364.75 C 1150.27 359.01 1151.20 352.93 1151.00 347.00 C 1151.00 342.00 1150.99 337.00 1151.00 332.00 Z" />
<path fill="#fefefe" d=" M 212.45 336.62 C 217.75 335.11 223.69 338.08 225.92 343.07 C 229.09 349.92 228.71 358.84 223.84 364.81 C 218.50 370.92 207.38 369.02 204.48 361.40 C 200.83 353.03 202.15 339.35 212.45 336.62 Z" />
<path fill="#fefefe" d=" M 316.68 337.67 C 319.94 335.59 324.65 335.73 327.44 338.56 C 330.26 341.24 330.82 345.31 331.32 348.97 C 324.33 349.01 317.33 349.03 310.34 348.96 C 310.92 344.60 312.71 340.00 316.68 337.67 Z" />
<path fill="#fefefe" d=" M 601.43 336.51 C 605.00 335.78 609.08 336.61 611.68 339.30 C 616.41 343.69 617.15 350.87 616.10 356.92 C 615.25 362.19 611.57 367.50 606.00 368.34 C 601.10 369.30 595.95 366.75 593.61 362.38 C 590.76 356.92 590.56 350.26 592.63 344.50 C 593.96 340.59 597.32 337.32 601.43 336.51 Z" />
<path fill="#fefefe" d=" M 799.76 338.77 C 802.94 335.83 808.40 335.23 811.71 338.30 C 814.75 340.94 815.36 345.13 815.96 348.89 C 808.93 349.09 801.90 348.98 794.87 348.98 C 795.53 345.23 796.74 341.30 799.76 338.77 Z" />
<path fill="#fefefe" d=" M 936.64 337.70 C 939.91 335.62 944.66 335.67 947.43 338.56 C 950.29 341.21 950.76 345.31 951.30 348.96 C 944.31 349.00 937.31 349.06 930.33 348.93 C 930.94 344.62 932.67 339.97 936.64 337.70 Z" />
<path fill="#fefefe" d=" M 1056.99 338.00 C 1060.30 335.54 1065.41 335.59 1068.33 338.66 C 1071.15 341.30 1071.58 345.36 1072.11 348.98 C 1065.09 348.98 1058.06 349.08 1051.04 348.91 C 1051.75 344.77 1053.33 340.41 1056.99 338.00 Z" />
<path fill="#fefefe" d=" M 1109.51 336.70 C 1113.48 335.52 1118.41 336.57 1120.88 340.11 C 1123.53 343.84 1123.83 348.63 1123.75 353.05 C 1123.66 357.83 1122.10 363.07 1118.00 365.93 C 1114.14 368.33 1108.50 368.16 1105.33 364.67 C 1101.54 360.49 1101.04 354.38 1101.55 349.01 C 1101.96 344.03 1104.20 338.14 1109.51 336.70 Z" />
<path fill="#fefefe" d=" M 1271.44 336.58 C 1276.17 335.31 1281.99 337.41 1283.74 342.26 C 1286.13 348.98 1286.40 357.18 1282.30 363.30 C 1278.80 368.63 1269.95 369.05 1266.19 363.79 C 1262.64 358.80 1262.45 352.19 1263.55 346.37 C 1264.30 342.08 1266.90 337.59 1271.44 336.58 Z" />
<path fill="#fefefe" d=" M 1320.86 338.83 C 1324.16 335.66 1330.05 335.19 1333.31 338.67 C 1336.08 341.35 1336.60 345.35 1337.10 348.99 C 1330.07 348.97 1323.04 349.09 1316.01 348.90 C 1316.72 345.21 1317.85 341.33 1320.86 338.83 Z" />
<path fill="#fefefe" d=" M 879.54 346.72 C 884.50 347.03 889.74 346.49 894.44 348.45 C 900.86 350.98 901.31 361.15 895.54 364.65 C 890.72 367.54 884.90 366.97 879.53 366.99 C 879.52 360.23 879.47 353.47 879.54 346.72 Z" />
<path fill="#fefefe" d=" M 720.82 355.85 C 725.46 352.62 731.43 353.13 736.80 352.75 C 736.73 357.13 736.78 362.16 733.58 365.58 C 730.24 368.81 724.76 369.36 720.67 367.35 C 716.61 364.88 717.05 358.37 720.82 355.85 Z" />
</svg>
