<svg xmlns="http://www.w3.org/2000/svg" viewBox="0 0 1500.52 710.24"><defs><style>.cls-1{fill:#090909;}.cls-2{fill:#040404;}.cls-3{fill:#fdca0c;}.cls-4{fill:#030303;}.cls-5{fill:#0a0a0a;}.cls-6{fill:#fdcb0e;}.cls-7{fill:#010101;}.cls-8{fill:#060606;}.cls-9{fill:#fdca0d;}.cls-10{fill:#fdca0b;}</style></defs><g id="Layer_3" data-name="Layer 3"><path class="cls-1" d="M152.87,518.76a52.79,52.79,0,0,0,.66-5.86c0-34.78,0-69.56.17-104.34a11,11,0,0,1,3.06-7.21c24.55-23,49.28-45.69,74-68.49a5.81,5.81,0,0,1,1.12-1c1.2-.64,2.45-1.21,3.69-1.8a22.42,22.42,0,0,1-1.43,3.93c-3.59,6-6.78,12.31-11.05,17.78-6.74,8.64-9,18.06-8.09,28.79A174.55,174.55,0,0,1,215,401c-.1,3.07,1,3.94,3.93,4.13,9.65.62,9.63.73,9.64-9,0-10.31-2-21.23.69-30.78s10.14-17.73,15.63-26.44c12.25-19.41,24.5-38.82,37-58.1a13.72,13.72,0,0,1,6.3-4.93c16.34-6.14,32.79-12,49.21-17.94,2.44-.89,4.85-1.37,5.19-5,.36-3.84-2.41-4.33-4.52-5.63-3.39-2.1-6.79-4.23-10.37-6-3.06-1.51-3.69-3-1.7-6,3.19-4.85,5.79-10.1,8.94-15,1.79-2.76,1.55-4.38-1.52-5.62a16.09,16.09,0,0,1-3.47-2c-2.08-1.52-3.33-1.12-4.69,1.13-3.36,5.54-6.82,11-10.63,16.28a8,8,0,0,1-5.41,3.12c-13.31.26-26.64.2-40,.07a12.16,12.16,0,0,1-5.6-1.54c-5.51-3.1-11-6.29-16.19-9.86a6.5,6.5,0,0,1-2.29-5.08c.77-7.77,2.11-15.49,3.06-23.25.34-2.81,1.56-4.25,4.24-5.31q54.06-21.31,108-42.9c2.19-.88,3.36-.78,4.64,1.48q26.24,46.5,52.6,92.92a5.69,5.69,0,0,1,.76,3.71c-1.65,6.69-3,13.14-8.07,18.82-33.2,37.28-66,75-98.92,112.45a8.81,8.81,0,0,0-2.47,8c7.1,43.82,14,87.67,21,131.51a24,24,0,0,0,1.7,4.53c.42,3.54-1.56,4.72-4.71,4.84-7.94.32-15.89,1-23.83.94-10.44,0-20.89-1.06-31.32-.83-38.68.83-77.42-2.29-116.06,1.6-.9.09-2.45-1.22-2.83-2.21C152.51,521.89,152.88,520.26,152.87,518.76Z"/><path class="cls-2" d="M923.75,710.08c-5.17,0-10.34-.19-15.49.08-3.21.16-4.36-.95-4.66-4.1-1.69-17.88-3.55-35.75-5.36-53.63-.33-3.31-.6-6.63-1.06-9.92-.11-.82-.88-1.55-1.35-2.32a20.63,20.63,0,0,0-.46,2.29c-2,20-4.06,40-6,60.07-.73,7.52-.63,7.53-8.33,7.53-9.33,0-18.66-.11-28,.06-3,.05-4.36-.62-4.71-4q-8.15-77.43-16.62-154.81c-.3-2.73.41-3.52,3.07-3.49,8.33.12,16.66.22,25,0,3.3-.1,3.76,1.33,4,4.06,1.87,22.55,3.87,45.08,5.83,67.62.43,5,.82,10,1.31,14.92a8,8,0,0,0,.86,2.13c.42-.68,1.1-1.31,1.21-2,.56-3.76,1.08-7.54,1.43-11.33,2.18-23.68,4.37-47.36,6.39-71.06.29-3.33,1.39-4.43,4.79-4.3,7.32.28,14.66.26,22,0,3.23-.11,4.34,1,4.59,4.11q3.12,39.56,6.48,79.09c.2,2.38.78,4.72,1.19,7.08a55.35,55.35,0,0,0,1.71-7.51q3.51-39.25,6.76-78.54c.25-3.14,1.1-4.31,4.41-4.22,8.16.22,16.32.2,24.48,0,3.23-.08,3.83.9,3.48,4q-7.09,63.72-14,127.47c-1,9.1-2.1,18.18-2.93,27.29-.26,2.82-1.33,3.61-4,3.51C934.41,710,929.08,710.08,923.75,710.08Z"/><path class="cls-3" d="M439.6,709.7c-4.67,0-9.36-.34-14,.09-4.14.37-5.6-1.25-6-5.1-.77-7.92-1.89-15.8-2.69-23.71-1.19-11.67-2.21-23.35-3.38-35a11.64,11.64,0,0,0-1.22-3c-.52,1-1.4,2.07-1.5,3.16-1.54,16.84-2.94,33.69-4.47,50.54a74.85,74.85,0,0,1-1.73,10.74,3.94,3.94,0,0,1-3,2.19c-11.32.15-22.64.17-34-.05-1,0-2.83-1.92-3-3.09-2.23-20.1-4.23-40.24-6.33-60.36q-1.92-18.5-4-37c-2.11-19.28-4.2-38.55-6.44-57.81-.32-2.72.43-3.6,3.08-3.57,8.16.09,16.33-.12,24.47.17,1.43.05,3,1.76,4.1,3.05.65.77.6,2.21.69,3.36,1.54,19.53,3,39.06,4.58,58.58.5,6.29,1.14,12.56,1.83,18.83.09.86.87,1.64,1.34,2.46.51-.86,1.39-1.7,1.47-2.6,1.18-13.51,2.19-27,3.39-40.55s2.46-26.75,3.94-40.1a4.5,4.5,0,0,1,3.16-3c8.15-.27,16.32-.34,24.47,0,1.33.06,3.56,2.45,3.69,3.91,1.65,17.52,3,35.07,4.38,52.61.76,9.58,1.39,19.17,2.19,28.75.08,1,.87,2,1.34,3,.48-.94,1.33-1.86,1.4-2.83,1.18-14.51,2.15-29,3.38-43.53q1.67-19.59,3.85-39.13c.12-1.08,2.1-2.76,3.26-2.79,8.31-.24,16.65,0,25-.2,3.34-.09,3.94,1.31,3.66,4.14-.86,8.58-1.48,17.18-2.46,25.74-.91,7.88-2.34,15.7-3.21,23.58-1,9.22-1.55,18.49-2.53,27.71-1.6,15-3.46,29.92-5.09,44.89-1.1,10.05-2.18,20.11-2.91,30.19-.32,4.39-1.74,6.25-6.41,5.83S444.42,709.7,439.6,709.7Z"/><path class="cls-4" d="M1334.37,629.07c0-25.3.08-50.6-.08-75.9,0-3.91.74-5.56,5.1-5.35,8,.36,16,.32,24,0,3.79-.16,5.08,1.18,5.75,4.76,3.81,20.59,7.85,41.14,11.85,61.7a22.62,22.62,0,0,0,1.06,3.13,13.6,13.6,0,0,0,.84-3.35c.05-20.47.12-40.94,0-61.41,0-3.64.76-5,4.66-4.82,7.31.32,14.66.3,22,0,3.89-.16,5,.91,5,4.92-.18,30.13-.1,60.25-.1,90.38,0,20.64-.12,41.28.11,61.92,0,4.22-1.18,5.32-5.28,5.13-7.32-.35-14.67-.31-22,0-3.8.17-5.09-1.19-5.79-4.8-4.25-22-8.73-44-13.19-66a21.49,21.49,0,0,0-1.59-3.84c-.08,1.26-.24,2.52-.24,3.78,0,22-.11,43.94.09,65.91,0,3.94-1,5.11-5,4.94-7.48-.32-15-.29-22.47,0-3.71.14-4.78-.88-4.75-4.69C1334.46,680,1334.37,654.54,1334.37,629.07Z"/><path class="cls-5" d="M321.43,249.93c-1.56.8-2.66,1.45-3.84,1.95-12.55,5.3-25.14,10.53-37.66,15.92-1.88.81-4.31,2-5,3.63-7.26,16.71-21.47,27.21-34.43,38.78q-52.32,46.67-104.73,93.22c-2.69,2.41-4.17,3-7-.05q-28.43-30.78-57.3-61.16c-2.65-2.79-2.81-4.28.08-7q22.55-20.82,44.73-42c2-1.91,3.11-2.2,5.11.07,11.32,12.84,22.91,25.46,34.14,38.38,2.18,2.51,3.08,1.14,4.54-.17,12.49-11.24,25.06-22.39,37.39-33.79,2.8-2.59,4.95-3.57,7.76-.49,3.15,3.44,5.89,3.11,9.7.24,15.55-11.7,31.36-23.05,47.21-34.36,2.64-1.88,3-3.1,1-5.75-4.64-6.08-8.94-12.41-13.35-18.66a12.35,12.35,0,0,1-1-2.15c.76.1,1.69-.05,2.26.34,10.73,7.36,23,7.7,35.31,7.85,7.82.09,15.65.11,23.44.74,3.32.27,6.52,2,9.76,3.1A9.89,9.89,0,0,1,321.43,249.93Z"/><path class="cls-6" d="M1044.56,628.72c0-25.12.08-50.24-.09-75.36,0-4.2.83-5.93,5.46-5.69,7.63.4,15.31.29,23,0,3.86-.12,5.19,1,5.13,5-.22,15.8,0,31.61-.21,47.41-.07,4.27.85,5.78,5.42,5.58,9.1-.39,9.11-.11,9.11-9.27,0-14.64.1-29.29-.07-43.92,0-3.59.79-5,4.68-4.85,8,.3,16,.21,24,0,2.87-.07,3.92,1.07,3.94,3.68,0,3.82,0,7.65,0,11.47,0,46.92-.1,93.83.12,140.74,0,5.23-1.47,6.53-6.45,6.21a190.51,190.51,0,0,0-21,0c-4.06.18-5.39-.9-5.34-5.19.22-20.62-.07-41.26.21-61.88.07-4.8-1.52-5.87-5.9-5.68-10.09.43-8.55-1.41-8.6,8.84-.11,19.63-.15,39.26.06,58.89,0,4.1-1.35,5.13-5.15,5-7.49-.23-15-.27-22.47,0-4.36.16-6-.84-6-5.73C1044.71,679,1044.56,653.84,1044.56,628.72Z"/><path class="cls-7" d="M92.9,629.24c0,25.13-.15,50.26.13,75.38,0,4.79-1.47,5.74-5.81,5.54-7.48-.33-15-.28-22.47,0-3.6.14-4.41-1.08-4.39-4.5.15-21.47,0-42.93.17-64.39,0-3.71-.88-4.79-4.67-4.71-10.46.21-10.46,0-10.46,10.31,0,19.47-.13,38.94.11,58.41,0,4.07-1.2,5-5,4.89-8-.29-16-.21-24,0-2.85.07-3.62-.79-3.62-3.63q.13-77.37,0-154.75c0-3.06.77-4,3.88-3.9,8,.22,16,.28,24,0,3.73-.14,4.82.87,4.77,4.67-.22,16.3,0,32.61-.19,48.91-.05,3.59,1,4.36,4.42,4.32,10.71-.12,10.71,0,10.71-10.42,0-14.31.09-28.62-.08-42.93,0-3.36.71-4.68,4.36-4.55q12,.42,24,0c3.7-.13,4.29,1.23,4.28,4.54C92.84,578,92.9,603.62,92.9,629.24Z"/><path class="cls-4" d="M184.59,628.83c0-25.12.14-50.24-.12-75.37-.05-4.79,1.47-5.71,5.87-5.64,14.81.26,29.63.06,44.45.11,16,.06,25,6.76,27.11,22.67,1.59,11.91,1.3,24.15.91,36.21a19.2,19.2,0,0,1-11,17.28c-2.4,1.19-1.58,1.81.28,2.61,5.25,2.26,7.72,6.7,8.72,12a57.58,57.58,0,0,1,1.07,10.39c.11,18.8-.06,37.61.15,56.41,0,3.84-1.11,4.8-4.78,4.67-7.65-.27-15.32-.3-23,0-3.89.16-4.68-1.2-4.64-4.82.17-19.47.12-38.94.06-58.4,0-7.57-1.82-9.66-7.75-10.53-3.31-.48-4.3.43-4.28,3.83.14,21.46-.05,42.93.18,64.39,0,4.29-.83,5.81-5.4,5.56-7.81-.43-15.65-.28-23.47-.05-3.48.11-4.5-.94-4.49-4.45C184.66,680.08,184.59,654.46,184.59,628.83ZM217.9,593c0,4,0,8,0,11.94,0,.89.2,2.17.79,2.59,2.94,2.1,11.42-.32,11.79-3.85a120.82,120.82,0,0,0,.35-21.6c-.26-3.54-5.55-5.15-11-3.48-1.11.34-1.69,3.52-1.89,5.46A83.25,83.25,0,0,0,217.9,593Z"/><path class="cls-4" d="M564.14,629.08c0-25.44.09-50.88-.09-76.32,0-4,1.09-5,5-4.93,15.46.37,31-.25,46.38.74s24.83,10.22,27.68,25.48a70.48,70.48,0,0,1,1.17,12.89c0,26.6.12,53.21-.3,79.8a79,79,0,0,1-3.23,20.58c-4.41,15.1-13.94,22.28-29.63,22.66-14.46.35-29-.06-43.42.19-4.14.07-3.56-2.28-3.56-4.76Q564.16,667.25,564.14,629.08Zm32.83-.47c0,16.12-.05,32.25.1,48.37,0,1.38,1.09,3.73,2.08,4,7.75,1.89,12.28-1.78,12.29-9.73q0-41.15,0-82.29a29.46,29.46,0,0,0-.88-7.38c-1-3.9-6.66-6.51-11.58-4.84-1.2.41-1.87,3.92-1.89,6C596.91,598,597,613.32,597,628.61Z"/><path class="cls-4" d="M657.35,628.81c0-25.3.07-50.6-.08-75.9,0-3.7.6-5.18,4.79-5.1,15,.28,30,.07,45,.12,16.34.05,24.6,6.74,27.74,22.83a101.81,101.81,0,0,1,.82,36.22c-1.22,7.4-4.34,13.6-11.33,17.21-1.48.77-2.51,1.28-.15,2.27,8,3.35,10,10.57,10.19,18,.39,20.79.12,41.6.18,62.41,0,2.22-.4,3.31-3,3.27-8.66-.14-17.32-.19-26,0-3.55.09-3.07-2-3.07-4.17q0-27.71,0-55.42a47.59,47.59,0,0,0-.42-7.46,7.94,7.94,0,0,0-9.81-6.65c-.93.23-1.85,2.65-1.86,4.07-.12,21.14-.26,42.28,0,63.41.08,5.06-1.16,6.59-6.26,6.26-7.47-.47-15-.31-22.47,0-3.55.13-4.42-1-4.4-4.46C657.41,680.07,657.34,654.44,657.35,628.81Zm47.55-37.14A70.17,70.17,0,0,0,704,583c-.84-3.89-10.13-6.81-12.92-4.2a3.45,3.45,0,0,0-.58,2.27c0,8-.09,16,0,23.91a3.47,3.47,0,0,0,1.8,2.68c7.31,1.87,11.15-.81,12.12-8.3C704.71,597,704.72,594.7,704.9,591.67Z"/><path class="cls-2" d="M813.56,710.08c-3.83,0-7.68-.25-11.48.08-3.45.31-4.29-1.28-4.47-4.24-.35-5.81-1-11.6-1.3-17.41-.18-3.34-1.06-5.19-5-4.76a72.12,72.12,0,0,1-11.48,0c-2.6-.13-3.47.87-3.62,3.38-.37,6.31-1.2,12.59-1.39,18.9-.1,3.38-1.36,4.15-4.47,4.07q-11.75-.27-23.48,0c-3.25.08-4.28-.69-3.93-4.2q7.26-73,14.28-146c1.17-12.06,1.21-12.05,13.2-12.05,12.82,0,25.65.18,38.46-.11,4-.09,5.07,1.28,5.4,4.92,2.67,29.65,5.48,59.29,8.26,88.93,2,21.35,3.93,42.72,6.11,64.06.36,3.59-.51,4.71-4.09,4.42S817.23,710.08,813.56,710.08Zm-34.25-59c-.37,6.79-.37,6.79,7.51,6.78a23,23,0,0,1,2.49,0c3,.34,4.06-.49,3.67-3.86-1-8.91-1.6-17.88-2.36-26.83q-2-24.11-4.12-48.21a15.58,15.58,0,0,0-.86-2.91c-.33,1-.65,2.08-1,3.12a2.63,2.63,0,0,0,0,.49C782.88,603.25,781.13,626.78,779.31,651.11Z"/><path class="cls-8" d="M1428.48,629.16c0-25.46.09-50.92-.09-76.38,0-4,1-5,5-5q27.72.32,55.45,0c4.1,0,5.06,1.24,4.92,5.07-.28,7.31-.27,14.65,0,22,.13,3.61-.7,5-4.62,4.79-7.81-.34-15.65,0-23.47-.15-2.83-.06-4.17.39-4.05,3.74q.4,11.71,0,23.46c-.11,3.53,1.34,4.09,4.38,4,7.49-.17,15,.1,22.47-.13,3.14-.09,4,.92,3.89,4-.19,7.82-.16,15.64,0,23.46.06,2.84-.85,3.67-3.66,3.6-7.66-.18-15.33.11-23-.14-3.36-.11-4.16,1-4.1,4.2.21,9.49.18,19,0,28.46,0,3.14.76,4.38,4.16,4.28,8.48-.23,17,.14,25.47-.17,3.9-.15,4.76,1.18,4.64,4.8-.26,7.82-.2,15.65,0,23.46.07,2.9-1,3.69-3.73,3.67-20-.08-40-.15-60,.06-4,0-3.73-2-3.73-4.64Q1428.51,667.35,1428.48,629.16Z"/><path class="cls-9" d="M1138.76,629.47q0-37.66,0-75.31c0-6.28.11-6.36,6.48-6.36,18.14,0,36.29.08,54.43-.09,3.41,0,4.72.8,4.62,4.39q-.36,11.71,0,23.45c.11,3.44-1.24,4.16-4.34,4.09-8-.17-16,0-24-.1-2.78,0-3.76.85-3.7,3.71.18,7.48.25,15,0,22.45-.13,3.77,1.33,5,4.88,5,7-.1,14,.08,21-.05,3.57-.07,5.08,1.15,5,4.92-.24,7.32-.2,14.64,0,22,.06,3-.71,4.13-3.9,4-7.65-.2-15.31.09-23-.09-3.12-.07-3.94,1-3.89,4q.27,14.22,0,28.44c-.06,3.17,1.12,4,4,3.92,8.65-.12,17.31.08,26-.06,3,0,4.11,1,4.06,4.05q-.21,12.23,0,24.45c0,2.65-1,3.46-3.49,3.45q-30.21-.09-60.42,0c-3.84,0-3.65-2.28-3.65-4.94Q1138.8,667.14,1138.76,629.47Z"/><path class="cls-9" d="M486.58,628.46c0-25,.07-49.92-.08-74.88,0-4.26.76-6,5.65-5.93,18,.33,36,.27,54,0,4.55-.06,6.33,1.2,6.13,5.87-.29,6.81-.31,13.65,0,20.46.21,4.28-.93,5.92-5.5,5.68-7.47-.38-15,0-22.47-.15-2.79,0-4.28.42-4.18,3.76.23,7.81.19,15.64,0,23.46-.06,3.13,1.18,4,4.14,3.94,7.16-.14,14.32,0,21.48,0,3.38,0,5,1.25,4.81,5.09a166.11,166.11,0,0,0,0,20.45c.33,4.77-1.57,5.52-5.64,5.36-6.82-.27-13.66.07-20.48-.14-3.14-.09-4.41.65-4.33,4.08q.33,14,0,28c-.08,3.6,1.21,4.49,4.62,4.39,8-.22,16,.08,24-.13,4.13-.11,5.66,1.46,5.55,5.55-.2,7.32-.17,14.64,0,22,.07,3.1-.72,4.5-4.16,4.48q-29.73-.18-59.45,0c-4,0-4.08-2-4.08-5Q486.66,666.66,486.58,628.46Z"/><path class="cls-4" d="M106.93,628.78c0-25.28.11-50.56-.1-75.84,0-4.24,1.2-5.17,5.26-5.12q27.71.34,55.42,0c3.92-.05,4.74,1.13,4.6,4.76-.27,7.64-.27,15.31,0,22.95.13,3.45-1.11,4.12-4.23,4-8-.2-16,.06-24-.13-3-.08-4,.67-4,3.84.24,7.81.22,15.64,0,23.45-.08,3,.71,4.07,3.86,4,7.65-.22,15.31.12,23-.16,3.55-.13,4.07,1.31,4,4.35-.19,7.48-.21,15,0,22.45.09,3.17-.67,4.34-4.07,4.22-7.48-.26-15,.13-22.47-.17-3.64-.14-4.39,1.1-4.3,4.49.24,9.14.26,18.3,0,27.44-.11,3.8.73,5.24,4.87,5.08,8.47-.35,17,0,25.46-.17,3-.07,4.1.72,4,3.88q-.29,12.21,0,24.44c.07,3-1.08,3.57-3.78,3.56-20-.1-39.94-.17-59.91,0-4,.05-3.74-1.89-3.73-4.55Q107,667.2,106.93,628.78Z"/><path class="cls-2" d="M274.67,629c0-25.45.07-50.9-.08-76.35,0-3.57.67-4.91,4.6-4.86,18.65.21,37.29.17,55.93,0,3.43,0,4.66.82,4.54,4.41-.26,7.81-.22,15.64,0,23.45.09,3.16-1,3.94-4,3.88-8-.19-16,.06-24-.13-3-.07-4,.72-3.95,3.88.23,8,.16,16,0,23.95,0,2.63.83,3.46,3.43,3.41,7.82-.13,15.65.1,23.47-.12,3.17-.09,3.95,1,3.88,4q-.29,11.73,0,23.46c.07,3-1,3.6-3.74,3.54-7.66-.16-15.32.12-23-.14-3.39-.11-4.15,1.05-4.09,4.23q.3,14.22,0,28.44c-.07,3.28.85,4.37,4.18,4.28,8.32-.2,16.65.1,25-.14,3.58-.1,5,.67,4.88,4.62-.32,7.63-.23,15.3,0,22.95.09,3.14-.65,4.38-4.08,4.35-19.64-.14-39.29-.18-58.93,0-3.94,0-4.14-1.72-4.13-4.78C274.71,679.94,274.67,654.48,274.67,629Z"/><path class="cls-5" d="M465.81,44.31a7,7,0,0,1,.59,2.33,12,12,0,0,1-1,2.81q-14,37-28.11,74.05a13.31,13.31,0,0,1-3.18,4.89C420.64,141,407,153.39,393.49,166c-2.33,2.18-3.31,2.28-4.85-.83-5.31-10.72-11.05-21.22-16.38-31.93-1.45-2.92-2.69-3.39-5.62-1.88-9.24,4.75-9.32,4.63-14.49-4.39-4.72-8.22-9.31-16.51-14.17-24.65-1.5-2.51-1.25-3.84,1.12-5.66,12.93-9.93,25.69-20.07,38.58-30a13.41,13.41,0,0,1,4.88-2.24q40-9.66,80-19.18C463.35,45,464.15,44.74,465.81,44.31ZM415,69.88c-9,1.93-17.45,3.63-25.85,5.64-3.4.82-.83,2.46,0,3.43,11.19,12.53,22.47,25,33.65,37.52,1.65,1.84,2.53,2.28,3.61-.45,2.7-6.78,5.71-13.45,8.32-20.27a5.22,5.22,0,0,0-.66-4.35c-5.44-6.72-11.09-13.27-16.73-19.83A11.08,11.08,0,0,0,415,69.88Z"/><path class="cls-1" d="M248.92,256.8a22.6,22.6,0,0,1-2.22,2.28c-10.59,8.33-21.27,16.56-31.79,25-2.32,1.85-3.5,1.29-5.22-.7q-36.67-42.51-73.51-84.9c-1.85-2.13-1.89-3.19.43-5q22.71-17.56,45.17-35.44c2.22-1.76,3.32-1.8,4.91.7q30.44,48,61,96C248.08,255.31,248.4,255.9,248.92,256.8Z"/><path class="cls-10" d="M984.33,644.46c0-20.13-.11-40.25.1-60.37,0-3.85-1.17-4.93-4.8-4.67a60.08,60.08,0,0,1-11.46-.11c-1.3-.16-3.35-2.17-3.4-3.4-.29-8.3-.25-16.63,0-24.93,0-1.1,2-3,3.09-3.05q32.7-.27,65.4,0c1,0,2.86,1.69,2.89,2.63.22,8.65.24,17.3,0,25.94,0,1-2,2.75-3.15,2.86a69.59,69.59,0,0,1-11.46.09c-3.88-.25-5.06,1.08-5,5.07.18,27.93.09,55.87.09,83.81,0,12.31-.11,24.62.08,36.92.05,3.47-1,4.66-4.48,4.56q-11.73-.33-23.46,0c-3.46.1-4.52-.93-4.49-4.46C984.41,685,984.33,664.75,984.33,644.46Z"/><path class="cls-4" d="M1217,628.8c0-25.45.1-50.9-.1-76.34,0-3.89,1.13-4.75,4.77-4.62,7.64.27,15.32.35,23,0,4.36-.22,5.13,1.4,5.12,5.37-.14,40.91-.09,81.83-.08,122.75,0,6.35,0,6.35,6.44,6.35,7.65,0,15.31.13,23-.06,3-.07,4.09.86,4,3.95-.2,6.81-.16,13.63,0,20.45.06,2.57-.75,3.49-3.39,3.48-19.8-.08-39.61-.13-59.41,0-3.88,0-3.26-2.23-3.26-4.51Q1217,667.22,1217,628.8Z"/><path d="M152.87,518.76c0,1.5-.36,3.13.13,4.44.38,1,1.93,2.3,2.83,2.21,38.64-3.89,77.38-.77,116.06-1.6,10.43-.23,20.88.79,31.32.83,7.94,0,15.89-.62,23.83-.94,3.15-.12,5.13-1.3,4.71-4.84,1.82-.09,3.64-.25,5.47-.25H551.91c9,0,9,0,8.34,9.1l-3.65,2.49c-1.33.08-2.65.24-4,.24q-119.94,0-239.9,0c-1.32,0-2.64-.17-4-.26-1.13-.82-2.21-2.28-3.39-2.36-4.13-.3-8.3-.12-12.45-.12q-45.63,0-91.25,0c-1.87,0-4.67-1.19-4.86,2.44h-27c-2.34-2.3-4.68-2.29-7,0-1.49.08-3,.23-4.46.23q-73,0-145.95,0c-1.49,0-3-.15-4.46-.23L5,528.7c-.95-10.11-.95-10.1,8.78-10.1H147.4C149.22,518.61,151.05,518.71,152.87,518.76Z"/><path class="cls-1" d="M130,205.68a26.49,26.49,0,0,0,1.93,3.79q30.74,37,61.56,74c1.51,1.8,1.57,2.86-.29,4.42-10.59,8.85-21.16,17.74-31.58,26.79-2.38,2.06-3.37.53-4.81-.87Q137.53,295,118.23,276.24q-12-11.69-23.84-23.44c-4.08-4-4.12-5.53-.26-9.45q16.29-16.53,32.58-33A46.38,46.38,0,0,0,130,205.68Z"/><path class="cls-2" d="M1322,629c0,25.44-.11,50.89.11,76.33,0,4.22-1.42,4.93-5.1,4.8-7.32-.24-14.65-.28-22,0-3.83.15-5-.79-5-4.85.19-29.93.1-59.86.1-89.79,0-21,.13-41.91-.1-62.86,0-4.12,1.26-5,5-4.83,7.15.28,14.32.33,21.46,0,4.23-.2,5.64.72,5.59,5.36C1321.89,578.47,1322,603.74,1322,629Z"/><path class="cls-5" d="M286.59,162.49a20,20,0,0,1-1.78-2.55c-8-16.27-16-32.53-23.77-48.89-.48-1,.32-3.56,1.29-4.17C278.09,96.94,294,87.25,309.8,77.36c2.4-1.5,3.37-.8,4.59,1.29q16.37,28,32.87,55.91c1.06,1.81,1.74,2.89-1,4-19.17,7.61-38.27,15.4-57.4,23.12C288.25,161.9,287.62,162.11,286.59,162.49Z"/><path class="cls-5" d="M275.72,165.82a32.62,32.62,0,0,1-3.47,1.93c-10.79,4.35-21.55,8.78-32.43,12.88-3,1.14-4,2.62-3.89,5.78.23,7.64.08,15.29,0,22.94a14.21,14.21,0,0,1-.38,2.32,12.24,12.24,0,0,1-1.94-1.78c-14.29-20.83-28.52-41.71-42.88-62.51-1.56-2.26-1.57-3.31.87-4.92Q217.45,125.41,243,108c2.39-1.62,3.49-1.45,4.81,1.25,8.75,17.91,17.66,35.74,26.51,53.6C274.73,163.63,275.05,164.39,275.72,165.82Z"/><path class="cls-7" d="M196.82,530.19c.19-3.63,3-2.44,4.86-2.44q45.63-.11,91.25,0c4.15,0,8.32-.18,12.45.12,1.18.08,2.26,1.54,3.39,2.36-13.43.09-26.86.26-40.29.24C244.59,530.4,220.71,530.27,196.82,530.19Z"/><path class="cls-2" d="M162.84,530.2c2.34-2.29,4.68-2.3,7,0Z"/><path class="cls-7" d="M556.6,530.19l3.65-2.49C561,531.38,558.53,530.41,556.6,530.19Z"/><path class="cls-1" d="M5,528.7l3,1.51Z"/></g></svg>